# xmcd
#
# Track frame offsets:
#	180
#	17930
#	31733
#	47617
#	62753
#	80527
#	94317
#	110286
#
# Disc length: 1668 seconds
#
# Revision: 1
# Processed by: cddbd v1.5.1PL2 Copyright (c) Steve Scherf et al.
# Submitted via: audiograbber 1.83.01
#
DISCID=5d068208
DTITLE=George Strait - SC7707
DYEAR=1900
DGENRE=Country
TTITLE0=I've Come To Expect It From...
TTITLE1=The Chair
TTITLE2=The Man In Love With You
TTITLE3=Love Without End, Amen
TTITLE4=I've Come To Expect It From... W/vocals
TTITLE5=The Chair W/vocals
TTITLE6=The Man In Love With You W/vocals
TTITLE7=Love Without End, Amen W/vocals
EXTD=
EXTT0=
EXTT1=
EXTT2=
EXTT3=
EXTT4=
EXTT5=
EXTT6=
EXTT7=
PLAYORDER=
